<svg width="1920" height="410" viewBox="0 0 1920 410" fill="none" xmlns="http://www.w3.org/2000/svg">
<rect width="1920" height="410" fill="url(#paint0_linear_699_12)"/>
<path d="M727 237H689.5V233.625H699.5V165.375H689.5V162H727V165.375H717V196.5H748.75V165.375H738.75V162H776.25V165.375H766.25V233.625H772.875C774.625 233.792 775.75 234.917 776.25 237H738.75V233.625H748.75V200.25H717V233.625H723.625C725.375 233.792 726.5 234.917 727 237ZM809.625 233.75C810.125 233.75 810.583 233.792 811 233.875C812.083 234.042 812.625 235.083 812.625 237H781.875V233.75C782.958 233.75 783.917 233.667 784.75 233.5C787.667 233 789.125 230.917 789.125 227.25V186.5H781.875V183.25H805V233.75H809.625ZM806.125 166.875C806.125 168.458 805.708 169.958 804.875 171.375C803.125 174.458 800.417 176 796.75 176C795.25 176 793.792 175.625 792.375 174.875C789.125 173.208 787.5 170.542 787.5 166.875C787.5 165.292 787.875 163.792 788.625 162.375C790.458 159.125 793.167 157.5 796.75 157.5C798.333 157.5 799.833 157.917 801.25 158.75C804.5 160.5 806.125 163.208 806.125 166.875ZM841.375 187.125V183.875H850V172L865.875 169.375V183.875H882.375V187.125H865.875V225C865.875 226.083 865.958 227.125 866.125 228.125C866.792 232.458 868.667 234.625 871.75 234.625C872.25 234.625 872.75 234.583 873.25 234.5C876.5 233.833 878.958 230.125 880.625 223.375L884 223.875C883.333 227.292 882.417 230.042 881.25 232.125C878.833 236.292 874.417 238.375 868 238.375C867 238.375 866 238.333 865 238.25C855 237.083 850 230.458 850 218.375V187.125H841.375ZM913.5 233.75C914 233.75 914.458 233.792 914.875 233.875C915.958 234.042 916.5 235.083 916.5 237H887.125V233.75C887.708 233.75 888.292 233.708 888.875 233.625C892.625 233.292 894.5 231.167 894.5 227.25V159H887.125V155.75H910.375V192.625C910.958 191.458 911.667 190.292 912.5 189.125C916.5 183.958 921.875 181.375 928.625 181.375C930.792 181.375 932.792 181.708 934.625 182.375C942.042 184.875 945.75 191.333 945.75 201.75V233.75H949.875C950.375 233.75 950.875 233.792 951.375 233.875C952.458 234.042 953 235.083 953 237H925V233.75C926.417 233.75 927.542 233.542 928.375 233.125C929.375 232.542 929.875 230.583 929.875 227.25V199.625C929.875 198.792 929.833 198.042 929.75 197.375C929.167 191.125 926.333 188 921.25 188C919.917 188 918.542 188.375 917.125 189.125C912.625 191.542 910.375 196.417 910.375 203.75V233.75H913.5ZM986.625 184.625C979.958 184.875 976.333 191.917 975.75 205.75L983.75 206.125C987.083 206.292 989.583 206.083 991.25 205.5C993.583 204.583 994.75 202.167 994.75 198.25C994.667 189.333 991.958 184.792 986.625 184.625ZM1010 224.125C1009.5 225.458 1008.83 226.75 1008 228C1003.75 234.833 996.75 238.25 987 238.25C981.5 238.25 976.583 237.125 972.25 234.875C963.167 230.125 958.625 221.708 958.625 209.625C958.625 202.208 960.625 196 964.625 191C969.875 184.583 977.208 181.375 986.625 181.375C991.792 181.375 996.417 182.25 1000.5 184C1007.75 187.25 1011.38 192.417 1011.38 199.5C1011.38 200.917 1011.12 202.208 1010.62 203.375C1008.46 208.042 1000.67 210.167 987.25 209.75L975.75 209.375C975.833 214.208 976.25 218.375 977 221.875C978.917 230.375 983.208 234.625 989.875 234.625C991.958 234.625 994 234.25 996 233.5C1001 231.667 1004.67 228.208 1007 223.125L1010 224.125ZM1049.25 233.75C1049.75 233.75 1050.21 233.792 1050.62 233.875C1051.71 234.042 1052.25 235.083 1052.25 237H1016.88V233.75C1017.96 233.75 1018.92 233.667 1019.75 233.5C1022.67 233 1024.12 230.917 1024.12 227.25V186.5H1016.88V183.25H1038.75L1039.62 194.875C1040.54 192.542 1041.88 190.375 1043.62 188.375C1047.54 184.292 1052.08 182.25 1057.25 182.25C1058.33 182.25 1059.38 182.375 1060.38 182.625C1064.46 183.708 1066.5 186.333 1066.5 190.5C1066.5 191.667 1066.25 192.792 1065.75 193.875C1064.33 197.042 1061.96 198.625 1058.62 198.625C1057.62 198.625 1056.71 198.5 1055.88 198.25C1054.12 197.583 1052.5 195.917 1051 193.25C1049.92 191.333 1048.92 190.375 1048 190.375C1047.5 190.375 1046.96 190.5 1046.38 190.75C1042.71 192.667 1040.58 198 1040 206.75V233.75H1049.25ZM1098.88 184.625C1092.21 184.875 1088.58 191.917 1088 205.75L1096 206.125C1099.33 206.292 1101.83 206.083 1103.5 205.5C1105.83 204.583 1107 202.167 1107 198.25C1106.92 189.333 1104.21 184.792 1098.88 184.625ZM1122.25 224.125C1121.75 225.458 1121.08 226.75 1120.25 228C1116 234.833 1109 238.25 1099.25 238.25C1093.75 238.25 1088.83 237.125 1084.5 234.875C1075.42 230.125 1070.88 221.708 1070.88 209.625C1070.88 202.208 1072.88 196 1076.88 191C1082.12 184.583 1089.46 181.375 1098.88 181.375C1104.04 181.375 1108.67 182.25 1112.75 184C1120 187.25 1123.62 192.417 1123.62 199.5C1123.62 200.917 1123.38 202.208 1122.88 203.375C1120.71 208.042 1112.92 210.167 1099.5 209.75L1088 209.375C1088.08 214.208 1088.5 218.375 1089.25 221.875C1091.17 230.375 1095.46 234.625 1102.12 234.625C1104.21 234.625 1106.25 234.25 1108.25 233.5C1113.25 231.667 1116.92 228.208 1119.25 223.125L1122.25 224.125ZM1126.62 245.96H1254.62V117.96H1126.62V245.96Z" fill="white"/>
<defs>
<linearGradient id="paint0_linear_699_12" x1="-2.16792e-05" y1="12.5001" x2="1920" y2="410" gradientUnits="userSpaceOnUse">
<stop stop-color="#5D69BE"/>
<stop offset="1" stop-color="#C89FEB"/>
</linearGradient>
</defs>
</svg>
